<?xml version="1.0" encoding="utf-8"?>
<!-- Generator: Adobe Illustrator 16.0.0, SVG Export Plug-In . SVG Version: 6.00 Build 0)  -->
<!DOCTYPE svg PUBLIC "-//W3C//DTD SVG 1.1//EN" "http://www.w3.org/Graphics/SVG/1.1/DTD/svg11.dtd">
<svg version="1.1" id="Слой_1" xmlns="http://www.w3.org/2000/svg" xmlns:xlink="http://www.w3.org/1999/xlink" x="0px" y="0px"
	 width="81px" height="12.724px" viewBox="0 0 81 12.724" enable-background="new 0 0 81 12.724" xml:space="preserve">
<g>
	<linearGradient id="SVGID_1_" gradientUnits="userSpaceOnUse" x1="5.0371" y1="12.6196" x2="5.0371" y2="0.104">
		<stop  offset="0" style="stop-color:#0F394A"/>
		<stop  offset="1" style="stop-color:#266781"/>
	</linearGradient>
	<path fill="url(#SVGID_1_)" d="M0.935,2.596L0.831,1.869L0.104,1.766L0,0.104h5.21L5.106,1.766L4.379,1.869L4.275,2.596v7.532
		l0.104,0.726h3.099l0.727-0.208l0.104-0.953L9.971,9.59l0.104,3.029H0l0.104-1.662l0.728-0.104l0.104-0.726V2.596z"/>
	<linearGradient id="SVGID_2_" gradientUnits="userSpaceOnUse" x1="17.5415" y1="12.6196" x2="17.5415" y2="0">
		<stop  offset="0" style="stop-color:#0F394A"/>
		<stop  offset="1" style="stop-color:#266781"/>
	</linearGradient>
	<path fill="url(#SVGID_2_)" d="M13.577,10.854l0.831,0.104l0.104,1.662H11.05l0.104-1.662l0.519-0.104l0.468-0.935L16.088,0h2.908
		l4.189,10.421l0.226,0.433l0.519,0.104l0.104,1.662h-5.021l0.104-1.662l0.831-0.104l-0.692-1.731h-5.003L13.577,10.854z
		 M18.563,7.356l-1.8-4.535l-1.801,4.535H18.563z"/>
	<linearGradient id="SVGID_3_" gradientUnits="userSpaceOnUse" x1="30.6978" y1="12.6196" x2="30.6978" y2="0.104">
		<stop  offset="0" style="stop-color:#0F394A"/>
		<stop  offset="1" style="stop-color:#266781"/>
	</linearGradient>
	<path fill="url(#SVGID_3_)" d="M25.807,2.251L25.53,1.869l-0.52-0.103l-0.104-1.662h5.055l-0.104,1.662l-0.521,0.103l2.234,3.653
		l2.216-3.653L33.06,1.766l-0.104-1.662h3.532l-0.104,1.662l-0.52,0.103l-0.675,0.917l-2.82,4.519v2.822l0.103,0.726l0.728,0.104
		l0.104,1.662h-5.212l0.105-1.662l0.727-0.104l0.104-0.726V7.323L25.807,2.251z"/>
	<linearGradient id="SVGID_4_" gradientUnits="userSpaceOnUse" x1="45.3579" y1="12.6196" x2="45.3579" y2="0.104">
		<stop  offset="0" style="stop-color:#0F394A"/>
		<stop  offset="1" style="stop-color:#266781"/>
	</linearGradient>
	<path fill="url(#SVGID_4_)" d="M41.117,4.432l-0.036,0.035v5.661l0.105,0.726l0.518,0.104l0.104,1.662h-3.964l0.104-1.662
		l0.728-0.104l0.104-0.726V2.596l-0.104-0.727l-0.728-0.103l-0.104-1.662h4.312L45.6,7.427l3.463-7.323h3.809l-0.104,1.662
		L52.04,1.869l-0.105,0.727v7.532l0.105,0.726l0.728,0.104l0.104,1.662h-4.693l0.104-1.662l0.52-0.104l0.103-0.952V4.346h-0.034
		l-3.047,6.508h-1.73L41.117,4.432z"/>
	<linearGradient id="SVGID_5_" gradientUnits="userSpaceOnUse" x1="61.0156" y1="12.6196" x2="61.0156" y2="0">
		<stop  offset="0" style="stop-color:#0F394A"/>
		<stop  offset="1" style="stop-color:#266781"/>
	</linearGradient>
	<path fill="url(#SVGID_5_)" d="M57.052,10.854l0.831,0.104l0.104,1.662h-3.461l0.103-1.662l0.521-0.104l0.466-0.935L59.561,0h2.909
		l4.189,10.421l0.224,0.433l0.52,0.104l0.103,1.662h-5.019l0.104-1.662l0.831-0.104l-0.692-1.731h-5.002L57.052,10.854z
		 M62.038,7.356l-1.801-4.535l-1.8,4.535H62.038z"/>
	<linearGradient id="SVGID_6_" gradientUnits="userSpaceOnUse" x1="74.8467" y1="12.7241" x2="74.8467" y2="0.104">
		<stop  offset="0" style="stop-color:#0F394A"/>
		<stop  offset="1" style="stop-color:#266781"/>
	</linearGradient>
	<path fill="url(#SVGID_6_)" d="M69.628,2.596l-0.104-0.727l-0.727-0.103l-0.104-1.662h3.341l5.73,7.582v-5.09L77.66,1.869
		l-0.728-0.103L76.83,0.104H81l-0.103,1.662L80.17,1.869l-0.104,0.727v10.128h-2.302L71.93,5.106v5.021l0.104,0.726l0.727,0.104
		l0.103,1.662h-4.171l0.104-1.662l0.727-0.104l0.104-0.726V2.596z"/>
</g>
</svg>
