<svg xmlns="http://www.w3.org/2000/svg" width="142.1" height="46.721"><linearGradient id="a" gradientUnits="userSpaceOnUse" x1="8.837" y1="22.139" x2="8.837" y2=".183"><stop offset="0" stop-color="#bcbcbc"/><stop offset="1" stop-color="#fff"/></linearGradient><path fill="url(#a)" d="M1.64 4.555l-.182-1.276-1.276-.181L0 .183h9.141l-.183 2.915-1.275.181-.182 1.276v13.212l.182 1.273h5.437l1.276-.364.182-1.671 2.916-.181.182 5.314H0l.182-2.915 1.276-.183.182-1.273V4.555z"/><linearGradient id="b" gradientUnits="userSpaceOnUse" x1="30.773" y1="22.139" x2="30.773"><stop offset="0" stop-color="#bcbcbc"/><stop offset="1" stop-color="#fff"/></linearGradient><path fill="url(#b)" d="M23.818 19.041l1.458.183.183 2.915h-6.075l.183-2.915.911-.183.821-1.64L28.223 0h5.101l7.349 18.281.396.759.911.183.182 2.915h-8.807l.182-2.915 1.458-.183-1.214-3.037h-8.777l-1.186 3.038zm8.747-6.136L29.407 4.95l-3.159 7.955h6.317z"/><linearGradient id="c" gradientUnits="userSpaceOnUse" x1="53.853" y1="22.139" x2="53.853" y2=".183"><stop offset="0" stop-color="#bcbcbc"/><stop offset="1" stop-color="#fff"/></linearGradient><path fill="url(#c)" d="M45.273 3.949l-.486-.67-.912-.181-.181-2.916h8.868l-.182 2.916-.913.181 3.919 6.409 3.888-6.409-1.276-.181-.183-2.916h6.197l-.184 2.916-.912.181-1.184 1.61-4.948 7.928v4.951l.18 1.273 1.276.183.183 2.915H49.28l.184-2.915 1.276-.183.181-1.273v-4.921l-5.648-8.898z"/><linearGradient id="d" gradientUnits="userSpaceOnUse" x1="79.572" y1="22.139" x2="79.572" y2=".183"><stop offset="0" stop-color="#bcbcbc"/><stop offset="1" stop-color="#fff"/></linearGradient><path fill="url(#d)" d="M72.132 7.774l-.062.062v9.931l.183 1.273.91.183.183 2.915H66.39l.183-2.915 1.276-.183.183-1.273V4.555l-.182-1.276-1.276-.181-.183-2.916h7.564l6.041 12.846L86.072.182h6.682l-.184 2.916-1.276.181-.183 1.276v13.212l.183 1.273 1.276.183.183 2.915h-8.232l.183-2.915.912-.183.181-1.669V7.624h-.06l-5.346 11.417h-3.036L72.132 7.774z"/><linearGradient id="e" gradientUnits="userSpaceOnUse" x1="107.04" y1="22.139" x2="107.04"><stop offset="0" stop-color="#bcbcbc"/><stop offset="1" stop-color="#fff"/></linearGradient><path fill="url(#e)" d="M100.087 19.041l1.457.183.183 2.915h-6.073l.181-2.915.913-.183.818-1.64L104.488 0h5.104l7.349 18.281.394.759.912.183.181 2.915h-8.806l.183-2.915 1.457-.183-1.214-3.037h-8.775l-1.186 3.038zm8.746-6.136l-3.16-7.955-3.158 7.955h6.318z"/><linearGradient id="f" gradientUnits="userSpaceOnUse" x1="131.305" y1="22.322" x2="131.305" y2=".183"><stop offset="0" stop-color="#bcbcbc"/><stop offset="1" stop-color="#fff"/></linearGradient><path fill="url(#f)" d="M122.149 4.555l-.183-1.276-1.276-.181-.181-2.916h5.861l10.052 13.301V4.555l-.183-1.276-1.277-.181-.18-2.916h7.316l-.18 2.916-1.276.181-.183 1.276v17.767h-4.038L126.187 8.958v8.809l.184 1.273 1.276.183.18 2.915h-7.317l.181-2.915 1.276-.183.183-1.273V4.555z"/><path d="M7.95 36.664c0 2.246-1.25 3.729-3.125 3.729H2.813a.083.083 0 0 0-.078.078v5.897c0 .117-.078.195-.195.195h-.996c-.117 0-.195-.078-.195-.195V33.07c0-.117.078-.195.195-.195h3.222c1.914 0 3.184 1.523 3.184 3.789zm-1.387.019c0-1.582-.8-2.597-1.972-2.597H2.813a.083.083 0 0 0-.078.078v5.019c0 .039.039.078.078.078H4.59c1.172 0 1.973-.996 1.973-2.578zm14.824 6.621v-7.148c0-2.05 1.367-3.417 3.359-3.417 2.011 0 3.397 1.367 3.397 3.417v7.148c0 2.05-1.386 3.417-3.397 3.417-1.992 0-3.359-1.367-3.359-3.417zm5.37.077v-7.284c0-1.27-.82-2.148-2.011-2.148-1.172 0-1.973.878-1.973 2.148v7.284c0 1.25.801 2.128 1.973 2.128 1.192.001 2.011-.878 2.011-2.128zm15.587 2.988V33.09c0-.118.079-.195.195-.195h.997c.117 0 .195.078.195.195v12.185c0 .039.039.079.078.079h4.472c.117 0 .195.078.195.195v.82c0 .117-.078.195-.195.195h-5.742c-.117 0-.195-.078-.195-.195zm19.453 0V33.09c0-.118.078-.195.195-.195h.996c.117 0 .195.078.195.195v13.279c0 .117-.078.195-.195.195h-.996c-.117 0-.195-.078-.195-.195zM83.905 33.09v.82c0 .117-.078.195-.196.195h-2.577a.084.084 0 0 0-.078.078v12.186c0 .117-.078.195-.195.195h-.996c-.117 0-.195-.078-.195-.195V34.184a.084.084 0 0 0-.078-.078h-2.421c-.118 0-.195-.078-.195-.195v-.82c0-.118.078-.195.195-.195h6.542c.116-.001.194.077.194.194zm13.789 13.279V33.09c0-.118.079-.195.195-.195h.997c.117 0 .195.078.195.195v13.279c0 .117-.079.195-.195.195h-.996c-.117 0-.196-.078-.196-.195zm15.586-3.027v-7.245c0-2.05 1.327-3.359 3.319-3.359 2.011 0 3.339 1.309 3.339 3.359v.333c0 .117-.078.195-.195.195l-1.016.058c-.118 0-.195-.078-.195-.195V36c0-1.23-.762-2.051-1.934-2.051-1.152 0-1.933.82-1.933 2.051v7.459c0 1.211.781 2.05 1.933 2.05 1.172 0 1.934-.839 1.934-2.05v-.488c0-.117.078-.195.195-.195l1.016.059c.117 0 .195.079.195.195v.313c0 2.051-1.328 3.378-3.339 3.378-1.992 0-3.319-1.328-3.319-3.379zm20.351-.078v-.469c0-.117.078-.195.195-.195h.977c.117 0 .195.079.195.195v.41c0 1.406.781 2.304 1.875 2.304 1.074 0 1.913-.859 1.913-2.206 0-1.387-.898-1.992-2.343-3.086-1.543-1.133-2.832-2.109-2.832-4.179 0-2.07 1.328-3.301 3.164-3.301 1.973 0 3.261 1.406 3.261 3.535v.488c0 .118-.078.195-.195.195h-.976c-.117 0-.195-.078-.195-.195v-.508c0-1.386-.762-2.304-1.895-2.304-1.015 0-1.796.742-1.796 2.128 0 1.25.645 1.836 2.226 3.007 1.973 1.465 2.949 2.246 2.949 4.101 0 2.168-1.367 3.535-3.28 3.535-1.915.002-3.243-1.385-3.243-3.455z" fill="#F6F6F6"/></svg>