<svg xmlns="http://www.w3.org/2000/svg" width="81" height="12.724"><linearGradient id="a" gradientUnits="userSpaceOnUse" x1="5.037" y1="12.62" x2="5.037" y2=".104"><stop offset="0" stop-color="#0f394a"/><stop offset="1" stop-color="#266781"/></linearGradient><path fill="url(#a)" d="M.935 2.596l-.104-.727-.727-.103L0 .104h5.21l-.104 1.662-.727.103-.104.727v7.532l.104.726h3.099l.727-.208.104-.953 1.662-.103.104 3.029H0l.104-1.662.728-.104.104-.726V2.596z"/><linearGradient id="b" gradientUnits="userSpaceOnUse" x1="17.541" y1="12.62" x2="17.541"><stop offset="0" stop-color="#0f394a"/><stop offset="1" stop-color="#266781"/></linearGradient><path fill="url(#b)" d="M13.577 10.854l.831.104.104 1.662H11.05l.104-1.662.519-.104.468-.935L16.088 0h2.908l4.189 10.421.226.433.519.104.104 1.662h-5.021l.104-1.662.831-.104-.692-1.731h-5.003l-.676 1.731zm4.986-3.498l-1.8-4.535-1.801 4.535h3.601z"/><linearGradient id="c" gradientUnits="userSpaceOnUse" x1="30.698" y1="12.62" x2="30.698" y2=".104"><stop offset="0" stop-color="#0f394a"/><stop offset="1" stop-color="#266781"/></linearGradient><path fill="url(#c)" d="M25.807 2.251l-.277-.382-.52-.103-.104-1.662h5.055l-.104 1.662-.521.103 2.234 3.653 2.216-3.653-.726-.103-.104-1.662h3.532l-.104 1.662-.52.103-.675.917-2.82 4.519v2.822l.103.726.728.104.104 1.662h-5.212l.105-1.662.727-.104.104-.726V7.323l-3.221-5.072z"/><linearGradient id="d" gradientUnits="userSpaceOnUse" x1="45.358" y1="12.62" x2="45.358" y2=".104"><stop offset="0" stop-color="#0f394a"/><stop offset="1" stop-color="#266781"/></linearGradient><path fill="url(#d)" d="M41.117 4.432l-.036.035v5.661l.105.726.518.104.104 1.662h-3.964l.104-1.662.728-.104.104-.726V2.596l-.104-.727-.728-.103-.104-1.662h4.312L45.6 7.427 49.063.104h3.809l-.104 1.662-.728.103-.105.727v7.532l.105.726.728.104.104 1.662h-4.693l.104-1.662.52-.104.103-.952V4.346h-.034l-3.047 6.508h-1.73l-2.978-6.422z"/><linearGradient id="e" gradientUnits="userSpaceOnUse" x1="61.016" y1="12.62" x2="61.016"><stop offset="0" stop-color="#0f394a"/><stop offset="1" stop-color="#266781"/></linearGradient><path fill="url(#e)" d="M57.052 10.854l.831.104.104 1.662h-3.461l.103-1.662.521-.104.466-.935L59.561 0h2.909l4.189 10.421.224.433.52.104.103 1.662h-5.019l.104-1.662.831-.104-.692-1.731h-5.002l-.676 1.731zm4.986-3.498l-1.801-4.535-1.8 4.535h3.601z"/><linearGradient id="f" gradientUnits="userSpaceOnUse" x1="74.847" y1="12.724" x2="74.847" y2=".104"><stop offset="0" stop-color="#0f394a"/><stop offset="1" stop-color="#266781"/></linearGradient><path fill="url(#f)" d="M69.628 2.596l-.104-.727-.727-.103-.104-1.662h3.341l5.73 7.582v-5.09l-.104-.727-.728-.103L76.83.104H81l-.103 1.662-.727.103-.104.727v10.128h-2.302L71.93 5.106v5.021l.104.726.727.104.103 1.662h-4.171l.104-1.662.727-.104.104-.726V2.596z"/></svg>