<svg xmlns="http://www.w3.org/2000/svg" viewBox="0 0 189 49.4"><path d="M188.5 7c-.3-.1-.6.2-.6.2-.2.2.2.9-.5 1.4-.7.5-3.6 1.6-3.5.8.3-3.2 3.3-4.5 2.3-4.9-1.3-.5-13.8-2.1-26.1 2.8-.3.1-3.5-.7-6.3-1.2-3.2-.6-6.5-.5-6.5-.6v10.2s-1.2 1.1-2.6 4.2c-1.5 3.3-3 9.8 1.9 18.7 4.4 8 10.3 10.7 10.3 10.7V32.5c-1.5.4-6.7 3.1-7.9 2.1 0 0-.4-.4-.1-1.3.3-.9.8-1.8 3.3-3.4 2.5-1.7 14.5-7.2 16.5-8.2 2-.9 14.5-7.1 16.3-8.3 2.1-1.4 3.3-3 3.8-4.1.5-1 0-2.1-.3-2.3zM70.8 39.4c0-3.7 1.9-5.3 5.2-5.3 2 0 3.2.6 3.9 1.3l-1 1c-.6-.6-1.4-1-2.9-1-2.6 0-3.8 1.3-3.8 4s1 4 3.8 4c2.6 0 3.2-1 3.2-3.1V40h-3.3v-1.3h4.7V40c0 2.8-.8 4.6-4.6 4.6s-5.2-1.7-5.2-5.2zm15.8 1.2h-2.9v4h-1.4V34.3h4.6c2.6 0 3.6 1.1 3.6 3.1 0 1.7-.7 2.8-2.5 3.1l2.3 4.1h-1.5l-2.2-4zm.3-1.3c1.4 0 2.2-.4 2.2-1.9s-.8-1.9-2.3-1.9h-3.2v3.7h3.3zm4.7.1c0-3.7 2-5.3 5.3-5.3s5.3 1.6 5.3 5.3c0 3.7-2 5.3-5.3 5.3s-5.3-1.5-5.3-5.3zm9.1.1c0-2.6-1.2-4-3.9-4s-3.8 1.4-3.8 4 1.2 4 3.8 4c2.8 0 3.9-1.5 3.9-4zm3.1 1.3v-6.5h1.4v6.4c0 1.7.5 2.8 3 2.8s3-1.1 3-2.8v-6.4h1.4v6.5c0 2-.6 4-4.4 4s-4.4-2-4.4-4zm11-6.5h4.6c2.6 0 3.6 1.1 3.6 3.2s-1 3.4-3.7 3.4h-3.2v3.7h-1.4V34.3zm4.6 5.3c1.5 0 2.2-.5 2.2-2s-.7-1.9-2.3-1.9h-3.2v4h3.3z" fill="#fff"/><g fill="#fff"><path d="M117.3 6.8h-2.8c-7.7 0-10.5 3.4-10.5 10.9 0 8.3 3.8 10.6 11.6 10.6h.7c7.7 0 11.6-2.3 11.6-10.6-.1-7.5-2.9-10.9-10.6-10.9m-1.1 17.5h-.6c-5 0-6-1-6-7.3 0-5.3 1.7-6.1 6.2-6.1h.2c4.5 0 6.2.8 6.2 6.1 0 6.3-1 7.3-6 7.3M35.9 6.8c-2.7 0-6.3.5-9.4 1.7v3.9c1.8-.6 5.3-1.4 9.2-1.4 4.1 0 5.7.5 5.7 2.9v1c-12.9.4-16.6 1.5-16.6 7.2 0 4.2 3.6 6.3 11.1 6.3 4.9 0 11 0 11-7.5v-6.3c0-6.9-5.1-7.8-11-7.8m5.5 14.9c0 2-1.2 2.6-5.2 2.6-5.1 0-5.8-.6-5.8-3 0-1.6 1.1-2.3 6.1-2.6l4.9-.2v3.2zM89.6 6.9c-3 0-5.5.6-7.3 1.9C80.5 7.4 78 6.9 75 6.9c-5.8.1-10 2-10 7.9V28h5.4V14.9c0-2.9.9-3.9 4.6-4 3.7.2 4.6 1.1 4.6 4V28H85V14.9c0-2.9.9-3.9 4.6-4 3.7.2 4.6 1.1 4.6 4V28h5.4V14.7c0-5.8-4.2-7.8-10-7.8" fill-rule="evenodd" clip-rule="evenodd"/><path d="M10 28.5c-3.6 0-6.1-.7-9.2-1.7v-3.9c3.2 1.1 6.6 1.5 9.7 1.5 3.6 0 5.7-.9 5.7-2.5 0-1.1-.5-1.5-1.9-1.6L7 19.4c-4.9-.6-7-2.5-7-6.1 0-4.8 5-6.4 9.7-6.4 4.4 0 7.6.8 10.1 1.7v3.9C16.9 11.4 13.1 11 9.7 11c-2.1 0-4.8.2-4.8 2.1 0 1.3 1.4 1.5 2.6 1.6l6.2.7c5 .6 7.3 2.6 7.3 6.2-.1 2.2-1.2 6.9-11 6.9"/><path fill-rule="evenodd" clip-rule="evenodd" d="M53.4 0h5.4v28.2h-5.4z"/></g></svg>