<?xml version="1.0" encoding="utf-8"?>
<!-- Generator: Adobe Illustrator 16.0.0, SVG Export Plug-In . SVG Version: 6.00 Build 0)  -->
<!DOCTYPE svg PUBLIC "-//W3C//DTD SVG 1.1//EN" "http://www.w3.org/Graphics/SVG/1.1/DTD/svg11.dtd">
<svg version="1.1" id="Слой_1" xmlns="http://www.w3.org/2000/svg" xmlns:xlink="http://www.w3.org/1999/xlink" x="0px" y="0px"
	 width="142.1px" height="46.721px" viewBox="0 0 142.1 46.721" enable-background="new 0 0 142.1 46.721" xml:space="preserve">
<g>
	<linearGradient id="SVGID_1_" gradientUnits="userSpaceOnUse" x1="8.8369" y1="22.1387" x2="8.8369" y2="0.1826">
		<stop  offset="0" style="stop-color:#BCBCBC"/>
		<stop  offset="1" style="stop-color:#FFFFFF"/>
	</linearGradient>
	<path fill="url(#SVGID_1_)" d="M1.64,4.555L1.458,3.279L0.182,3.098L0,0.183h9.141L8.958,3.098L7.683,3.279L7.501,4.555v13.212
		l0.182,1.273h5.437l1.276-0.364l0.182-1.671l2.916-0.181l0.182,5.314H0l0.182-2.915l1.276-0.183l0.182-1.273V4.555z"/>
	<linearGradient id="SVGID_2_" gradientUnits="userSpaceOnUse" x1="30.7734" y1="22.1387" x2="30.7734" y2="0">
		<stop  offset="0" style="stop-color:#BCBCBC"/>
		<stop  offset="1" style="stop-color:#FFFFFF"/>
	</linearGradient>
	<path fill="url(#SVGID_2_)" d="M23.818,19.041l1.458,0.183l0.183,2.915h-6.075l0.183-2.915l0.911-0.183l0.821-1.64L28.223,0h5.101
		l7.349,18.281l0.396,0.759l0.911,0.183l0.182,2.915h-8.807l0.182-2.915l1.458-0.183l-1.214-3.037h-8.777L23.818,19.041z
		 M32.565,12.905L29.407,4.95l-3.159,7.955H32.565z"/>
	<linearGradient id="SVGID_3_" gradientUnits="userSpaceOnUse" x1="53.853" y1="22.1387" x2="53.853" y2="0.1826">
		<stop  offset="0" style="stop-color:#BCBCBC"/>
		<stop  offset="1" style="stop-color:#FFFFFF"/>
	</linearGradient>
	<path fill="url(#SVGID_3_)" d="M45.273,3.949l-0.486-0.67l-0.912-0.181l-0.181-2.916h8.868L52.38,3.098l-0.913,0.181l3.919,6.409
		l3.888-6.409l-1.276-0.181l-0.183-2.916h6.197l-0.184,2.916l-0.912,0.181l-1.184,1.61l-4.948,7.928v4.951l0.18,1.273l1.276,0.183
		l0.183,2.915h-9.143l0.184-2.915l1.276-0.183l0.181-1.273v-4.921L45.273,3.949z"/>
	<linearGradient id="SVGID_4_" gradientUnits="userSpaceOnUse" x1="79.5718" y1="22.1387" x2="79.5718" y2="0.1826">
		<stop  offset="0" style="stop-color:#BCBCBC"/>
		<stop  offset="1" style="stop-color:#FFFFFF"/>
	</linearGradient>
	<path fill="url(#SVGID_4_)" d="M72.132,7.774L72.07,7.836v9.931l0.183,1.273l0.91,0.183l0.183,2.915h-6.956l0.183-2.915
		l1.276-0.183l0.183-1.273V4.555L67.85,3.279l-1.276-0.181l-0.183-2.916h7.564l6.041,12.846l6.076-12.846h6.682L92.57,3.098
		l-1.276,0.181l-0.183,1.276v13.212l0.183,1.273l1.276,0.183l0.183,2.915h-8.232l0.183-2.915l0.912-0.183l0.181-1.669V7.624h-0.06
		l-5.346,11.417h-3.036L72.132,7.774z"/>
	<linearGradient id="SVGID_5_" gradientUnits="userSpaceOnUse" x1="107.0405" y1="22.1387" x2="107.0405" y2="0">
		<stop  offset="0" style="stop-color:#BCBCBC"/>
		<stop  offset="1" style="stop-color:#FFFFFF"/>
	</linearGradient>
	<path fill="url(#SVGID_5_)" d="M100.087,19.041l1.457,0.183l0.183,2.915h-6.073l0.181-2.915l0.913-0.183l0.818-1.64L104.488,0
		h5.104l7.349,18.281l0.394,0.759l0.912,0.183l0.181,2.915h-8.806l0.183-2.915l1.457-0.183l-1.214-3.037h-8.775L100.087,19.041z
		 M108.833,12.905l-3.16-7.955l-3.158,7.955H108.833z"/>
	<linearGradient id="SVGID_6_" gradientUnits="userSpaceOnUse" x1="131.3047" y1="22.3218" x2="131.3047" y2="0.1826">
		<stop  offset="0" style="stop-color:#BCBCBC"/>
		<stop  offset="1" style="stop-color:#FFFFFF"/>
	</linearGradient>
	<path fill="url(#SVGID_6_)" d="M122.149,4.555l-0.183-1.276l-1.276-0.181l-0.181-2.916h5.861l10.052,13.301V4.555l-0.183-1.276
		l-1.277-0.181l-0.18-2.916h7.316l-0.18,2.916l-1.276,0.181l-0.183,1.276v17.767h-4.038L126.187,8.958v8.809l0.184,1.273
		l1.276,0.183l0.18,2.915h-7.317l0.181-2.915l1.276-0.183l0.183-1.273V4.555z"/>
</g>
<g>
	<path fill="#F6F6F6" d="M7.95,36.664c0,2.246-1.25,3.729-3.125,3.729H2.813c-0.04,0-0.078,0.039-0.078,0.078v5.897
		c0,0.117-0.078,0.195-0.195,0.195H1.544c-0.117,0-0.195-0.078-0.195-0.195V33.07c0-0.117,0.078-0.195,0.195-0.195h3.222
		C6.68,32.875,7.95,34.398,7.95,36.664z M6.563,36.683c0-1.582-0.8-2.597-1.972-2.597H2.813c-0.04,0-0.078,0.039-0.078,0.078v5.019
		c0,0.039,0.039,0.078,0.078,0.078h1.777C5.762,39.261,6.563,38.265,6.563,36.683z"/>
	<path fill="#F6F6F6" d="M21.387,43.304v-7.148c0-2.05,1.367-3.417,3.359-3.417c2.011,0,3.397,1.367,3.397,3.417v7.148
		c0,2.05-1.386,3.417-3.397,3.417C22.754,46.721,21.387,45.354,21.387,43.304z M26.757,43.381v-7.284c0-1.27-0.82-2.148-2.011-2.148
		c-1.172,0-1.973,0.878-1.973,2.148v7.284c0,1.25,0.801,2.128,1.973,2.128C25.938,45.51,26.757,44.631,26.757,43.381z"/>
	<path fill="#F6F6F6" d="M42.344,46.369V33.09c0-0.118,0.079-0.195,0.195-0.195h0.997c0.117,0,0.195,0.078,0.195,0.195v12.185
		c0,0.039,0.039,0.079,0.078,0.079h4.472c0.117,0,0.195,0.078,0.195,0.195v0.82c0,0.117-0.078,0.195-0.195,0.195h-5.742
		C42.422,46.564,42.344,46.486,42.344,46.369z"/>
	<path fill="#F6F6F6" d="M61.797,46.369V33.09c0-0.118,0.078-0.195,0.195-0.195h0.996c0.117,0,0.195,0.078,0.195,0.195v13.279
		c0,0.117-0.078,0.195-0.195,0.195h-0.996C61.875,46.564,61.797,46.486,61.797,46.369z"/>
	<path fill="#F6F6F6" d="M83.905,33.09v0.82c0,0.117-0.078,0.195-0.196,0.195h-2.577c-0.039,0-0.078,0.039-0.078,0.078v12.186
		c0,0.117-0.078,0.195-0.195,0.195h-0.996c-0.117,0-0.195-0.078-0.195-0.195V34.184c0-0.039-0.039-0.078-0.078-0.078h-2.421
		c-0.118,0-0.195-0.078-0.195-0.195v-0.82c0-0.118,0.078-0.195,0.195-0.195h6.542C83.827,32.895,83.905,32.973,83.905,33.09z"/>
	<path fill="#F6F6F6" d="M97.694,46.369V33.09c0-0.118,0.079-0.195,0.195-0.195h0.997c0.117,0,0.195,0.078,0.195,0.195v13.279
		c0,0.117-0.079,0.195-0.195,0.195H97.89C97.773,46.564,97.694,46.486,97.694,46.369z"/>
	<path fill="#F6F6F6" d="M113.28,43.342v-7.245c0-2.05,1.327-3.359,3.319-3.359c2.011,0,3.339,1.309,3.339,3.359v0.333
		c0,0.117-0.078,0.195-0.195,0.195l-1.016,0.058c-0.118,0-0.195-0.078-0.195-0.195V36c0-1.23-0.762-2.051-1.934-2.051
		c-1.152,0-1.933,0.82-1.933,2.051v7.459c0,1.211,0.781,2.05,1.933,2.05c1.172,0,1.934-0.839,1.934-2.05v-0.488
		c0-0.117,0.078-0.195,0.195-0.195l1.016,0.059c0.117,0,0.195,0.079,0.195,0.195v0.313c0,2.051-1.328,3.378-3.339,3.378
		C114.607,46.721,113.28,45.393,113.28,43.342z"/>
	<path fill="#F6F6F6" d="M133.631,43.264v-0.469c0-0.117,0.078-0.195,0.195-0.195h0.977c0.117,0,0.195,0.079,0.195,0.195v0.41
		c0,1.406,0.781,2.304,1.875,2.304c1.074,0,1.913-0.859,1.913-2.206c0-1.387-0.898-1.992-2.343-3.086
		c-1.543-1.133-2.832-2.109-2.832-4.179c0-2.07,1.328-3.301,3.164-3.301c1.973,0,3.261,1.406,3.261,3.535v0.488
		c0,0.118-0.078,0.195-0.195,0.195h-0.976c-0.117,0-0.195-0.078-0.195-0.195v-0.508c0-1.386-0.762-2.304-1.895-2.304
		c-1.015,0-1.796,0.742-1.796,2.128c0,1.25,0.645,1.836,2.226,3.007c1.973,1.465,2.949,2.246,2.949,4.101
		c0,2.168-1.367,3.535-3.28,3.535C134.959,46.721,133.631,45.334,133.631,43.264z"/>
</g>
</svg>
